<?xml version="1.0" standalone="no"?>
<!DOCTYPE svg PUBLIC "-//W3C//DTD SVG 20010904//EN"
 "http://www.w3.org/TR/2001/REC-SVG-20010904/DTD/svg10.dtd">
<svg version="1.0" xmlns="http://www.w3.org/2000/svg"
 width="300.000000pt" height="300.000000pt" viewBox="0 0 300.000000 300.000000"
 preserveAspectRatio="xMidYMid meet">
<metadata>
Created by potrace 1.14, written by Peter Selinger 2001-2017
</metadata>
<g transform="translate(0.000000,300.000000) scale(0.100000,-0.100000)"
fill="#000000" stroke="none">
<path d="M1268 2924 c-2 -1 -26 -6 -53 -9 -141 -18 -339 -87 -480 -168 -59
-33 -129 -80 -137 -92 -4 -5 -8 -7 -8 -4 0 11 -72 -53 -167 -149 -130 -131
-211 -257 -314 -487 -16 -35 -39 -117 -61 -215 -23 -103 -34 -392 -18 -467 5
-21 11 -51 13 -68 18 -115 70 -263 141 -398 l51 -99 40 7 c22 4 57 8 79 11 62
6 129 14 156 19 50 8 266 37 318 42 28 3 52 7 52 9 0 3 -21 26 -47 52 -132
131 -229 308 -249 455 -3 23 -8 53 -10 67 -8 42 -4 162 6 227 26 158 99 316
196 423 18 19 41 44 51 56 79 92 304 210 438 232 85 13 298 6 370 -12 264 -68
496 -272 591 -521 10 -27 19 -52 20 -55 0 -3 6 -25 13 -50 18 -61 23 -101 25
-200 3 -154 -38 -306 -120 -441 -34 -56 -41 -75 -26 -66 4 3 30 8 57 11 28 3
66 8 85 11 19 3 53 7 75 10 22 2 51 7 65 9 14 3 50 8 80 11 30 2 84 9 119 14
36 6 68 8 73 5 4 -3 8 -1 8 4 0 5 8 9 18 9 62 0 68 9 87 113 3 14 7 36 10 50
31 164 24 433 -16 575 -94 332 -236 561 -472 758 -124 103 -341 227 -442 252
-5 1 -17 4 -25 7 -46 16 -91 28 -140 37 -30 6 -77 15 -105 20 -45 9 -339 13
-347 5z"/>
<path d="M2969 1066 c-2 -3 -31 -7 -63 -10 -56 -6 -91 -11 -146 -21 -14 -2
-50 -7 -80 -11 -30 -3 -66 -7 -80 -9 -32 -4 -120 -16 -140 -20 -8 -1 -42 -6
-75 -10 -56 -6 -64 -10 -95 -48 -77 -91 -167 -164 -263 -216 -68 -35 -205 -83
-217 -76 -5 3 -11 2 -14 -3 -6 -10 -60 -15 -176 -16 -181 -1 -306 36 -462 136
-61 39 -83 48 -105 44 -16 -3 -48 -8 -73 -11 -25 -3 -79 -10 -120 -15 -41 -6
-88 -13 -105 -15 -114 -15 -195 -26 -215 -30 -12 -2 -40 -5 -61 -7 -42 -2 -47
-9 -24 -28 8 -7 15 -17 15 -22 0 -6 19 -33 42 -61 24 -29 50 -60 58 -70 16
-20 91 -94 150 -147 58 -53 210 -150 305 -195 70 -33 201 -82 245 -90 11 -2
127 -27 164 -35 21 -5 116 -7 210 -6 183 3 295 22 441 73 78 27 258 113 263
125 2 4 8 8 13 8 25 0 187 129 276 219 60 61 193 233 193 249 0 6 6 17 14 24
17 18 77 144 110 231 23 62 26 74 15 63z"/>
</g>
</svg>
